<svg width="24" height="24" viewBox="0 0 24 24" fill="none" xmlns="http://www.w3.org/2000/svg">
<rect width="24" height="24" fill="white"/>
<path d="M20.9434 13C20.4458 17.4999 16.6325 21 12 21C7.36751 21 3.55417 17.4999 3.05664 13H20.9434ZM3.05664 11C3.02033 11.3284 3 11.6619 3 12C3 12.3381 3.02033 12.6716 3.05664 13H1C0.447715 13 0 12.5523 0 12C0 11.4477 0.447715 11 1 11H3.05664ZM23 11C23.5523 11 24 11.4477 24 12C24 12.5523 23.5523 13 23 13H20.9434C20.9797 12.6716 21 12.3381 21 12C21 11.6619 20.9797 11.3284 20.9434 11H23ZM12 3C16.6325 3 20.4458 6.50014 20.9434 11H3.05664C3.55417 6.50014 7.36751 3 12 3Z" fill="#E66826"/>
</svg>
